<?xml version="1.0" standalone="no"?>
<!DOCTYPE svg PUBLIC "-//W3C//DTD SVG 20010904//EN"
 "http://www.w3.org/TR/2001/REC-SVG-20010904/DTD/svg10.dtd">
<svg version="1.0" xmlns="http://www.w3.org/2000/svg"
 width="980.000000pt" height="980.000000pt" viewBox="0 0 980.000000 980.000000"
 preserveAspectRatio="xMidYMid meet">
<metadata>
Created by potrace 1.16, written by Peter Selinger 2001-2019
</metadata>
<g transform="translate(0.000000,980.000000) scale(0.100000,-0.100000)"
fill="#000000" stroke="none">
<path d="M4560 9789 c-1035 -75 -1992 -461 -2800 -1127 -148 -122 -500 -474
-622 -622 -534 -647 -880 -1372 -1042 -2180 -259 -1291 18 -2648 761 -3727
277 -403 628 -778 1018 -1087 930 -737 2150 -1115 3337 -1036 1418 95 2699
777 3569 1900 526 679 870 1511 978 2365 122 968 -36 1920 -464 2790 -236 479
-512 868 -895 1259 -813 830 -1835 1325 -3000 1451 -174 19 -664 27 -840 14z
m743 -875 c498 -49 943 -178 1397 -406 896 -448 1584 -1198 1953 -2128 190
-480 279 -952 279 -1480 0 -528 -89 -1000 -279 -1480 -483 -1219 -1525 -2127
-2798 -2441 -524 -129 -1104 -148 -1651 -54 -1114 192 -2120 870 -2725 1838
-171 273 -342 642 -433 937 -188 607 -230 1266 -121 1893 198 1143 890 2154
1888 2759 748 453 1615 649 2490 562z"/>
<path d="M6770 6375 l0 -305 -2547 -2 -2548 -3 -3 -367 -2 -368 3227 0 3228 0
-675 675 c-371 371 -676 675 -677 675 -2 0 -3 -137 -3 -305z"/>
<path d="M2350 3795 l675 -675 3 305 2 305 2548 2 2547 3 3 368 2 367 -3227 0
-3228 0 675 -675z"/>
</g>
</svg>
